<svg xmlns="http://www.w3.org/2000/svg" xmlns:xlink="http://www.w3.org/1999/xlink" contentStyleType="text/css" height="632px" preserveAspectRatio="none" style="width:1412px;height:632px;background:#FFFFFF;" version="1.1" viewBox="0 0 1412 632" width="1412px" zoomAndPan="magnify"><defs/><g><rect fill="#FFFFFF" height="466.7969" style="stroke:#181818;stroke-width:1.0;" width="10" x="64.3521" y="77.2969"/><rect fill="#FFFFFF" height="430.6641" style="stroke:#181818;stroke-width:1.0;" width="10" x="436.1362" y="98.4297"/><rect fill="#FFFFFF" height="416.5313" style="stroke:#181818;stroke-width:1.0;" width="10" x="756.8174" y="127.5625"/><rect fill="#FFFFFF" height="285" style="stroke:#181818;stroke-width:1.0;" width="10" x="1032.8535" y="214.9609"/><rect fill="#FFFFFF" height="29.1328" style="stroke:#181818;stroke-width:1.0;" width="10" x="1341.3853" y="441.6953"/><rect fill="none" height="265" style="stroke:#000000;stroke-width:1.5;" width="1395.0698" x="10" y="272.0938"/><line style="stroke:#181818;stroke-width:0.5;stroke-dasharray:5.0,5.0;" x1="69" x2="69" y1="67.2969" y2="554.0938"/><line style="stroke:#181818;stroke-width:0.5;stroke-dasharray:5.0,5.0;" x1="440.896" x2="440.896" y1="67.2969" y2="554.0938"/><line style="stroke:#181818;stroke-width:0.5;stroke-dasharray:5.0,5.0;" x1="761.7715" x2="761.7715" y1="67.2969" y2="554.0938"/><line style="stroke:#181818;stroke-width:0.5;stroke-dasharray:5.0,5.0;" x1="1037.7988" x2="1037.7988" y1="67.2969" y2="554.0938"/><line style="stroke:#181818;stroke-width:0.5;stroke-dasharray:5.0,5.0;" x1="1345.7007" x2="1345.7007" y1="67.2969" y2="554.0938"/><rect fill="#E2E2F0" height="30.2969" rx="2.5" ry="2.5" style="stroke:#181818;stroke-width:0.5;" width="98.7041" x="20" y="36"/><text fill="#000000" font-family="sans-serif" font-size="14" lengthAdjust="spacing" textLength="84.7041" x="27" y="55.9951">&#1050;&#1083;&#1072;&#1076;&#1086;&#1074;&#1097;&#1080;&#1082;</text><rect fill="#E2E2F0" height="30.2969" rx="2.5" ry="2.5" style="stroke:#181818;stroke-width:0.5;" width="98.7041" x="20" y="553.0938"/><text fill="#000000" font-family="sans-serif" font-size="14" lengthAdjust="spacing" textLength="84.7041" x="27" y="573.0889">&#1050;&#1083;&#1072;&#1076;&#1086;&#1074;&#1097;&#1080;&#1082;</text><rect fill="#E2E2F0" height="30.2969" rx="2.5" ry="2.5" style="stroke:#181818;stroke-width:0.5;" width="76.4805" x="402.896" y="36"/><text fill="#000000" font-family="sans-serif" font-size="14" lengthAdjust="spacing" textLength="62.4805" x="409.896" y="55.9951">&#1057;&#1080;&#1089;&#1090;&#1077;&#1084;&#1072;</text><rect fill="#E2E2F0" height="30.2969" rx="2.5" ry="2.5" style="stroke:#181818;stroke-width:0.5;" width="76.4805" x="402.896" y="553.0938"/><text fill="#000000" font-family="sans-serif" font-size="14" lengthAdjust="spacing" textLength="62.4805" x="409.896" y="573.0889">&#1057;&#1080;&#1089;&#1090;&#1077;&#1084;&#1072;</text><rect fill="#E2E2F0" height="30.2969" rx="2.5" ry="2.5" style="stroke:#181818;stroke-width:0.5;" width="226.0918" x="648.7715" y="36"/><text fill="#000000" font-family="sans-serif" font-size="14" lengthAdjust="spacing" textLength="212.0918" x="655.7715" y="55.9951">&#1060;&#1086;&#1088;&#1084;&#1072;&#1055;&#1088;&#1080;&#1093;&#1086;&#1076;&#1085;&#1086;&#1081;&#1053;&#1072;&#1082;&#1083;&#1072;&#1076;&#1085;&#1086;&#1081;</text><rect fill="#E2E2F0" height="30.2969" rx="2.5" ry="2.5" style="stroke:#181818;stroke-width:0.5;" width="226.0918" x="648.7715" y="553.0938"/><text fill="#000000" font-family="sans-serif" font-size="14" lengthAdjust="spacing" textLength="212.0918" x="655.7715" y="573.0889">&#1060;&#1086;&#1088;&#1084;&#1072;&#1055;&#1088;&#1080;&#1093;&#1086;&#1076;&#1085;&#1086;&#1081;&#1053;&#1072;&#1082;&#1083;&#1072;&#1076;&#1085;&#1086;&#1081;</text><rect fill="#E2E2F0" height="30.2969" rx="2.5" ry="2.5" style="stroke:#181818;stroke-width:0.5;" width="266.1094" x="904.7988" y="36"/><text fill="#000000" font-family="sans-serif" font-size="14" lengthAdjust="spacing" textLength="252.1094" x="911.7988" y="55.9951">&#1050;&#1086;&#1085;&#1090;&#1088;&#1086;&#1083;&#1083;&#1077;&#1088;&#1055;&#1088;&#1080;&#1093;&#1086;&#1076;&#1085;&#1086;&#1081;&#1053;&#1072;&#1082;&#1083;&#1072;&#1076;&#1085;&#1086;&#1081;</text><rect fill="#E2E2F0" height="30.2969" rx="2.5" ry="2.5" style="stroke:#181818;stroke-width:0.5;" width="266.1094" x="904.7988" y="553.0938"/><text fill="#000000" font-family="sans-serif" font-size="14" lengthAdjust="spacing" textLength="252.1094" x="911.7988" y="573.0889">&#1050;&#1086;&#1085;&#1090;&#1088;&#1086;&#1083;&#1083;&#1077;&#1088;&#1055;&#1088;&#1080;&#1093;&#1086;&#1076;&#1085;&#1086;&#1081;&#1053;&#1072;&#1082;&#1083;&#1072;&#1076;&#1085;&#1086;&#1081;</text><text fill="#000000" font-family="sans-serif" font-size="14" lengthAdjust="spacing" textLength="91.3691" x="1297.7007" y="63.9951">&#1041;&#1072;&#1079;&#1072;&#1044;&#1072;&#1085;&#1085;&#1099;&#1093;</text><path d="M1328.3853,15 C1328.3853,5 1346.3853,5 1346.3853,5 C1346.3853,5 1364.3853,5 1364.3853,15 L1364.3853,41 C1364.3853,51 1346.3853,51 1346.3853,51 C1346.3853,51 1328.3853,51 1328.3853,41 L1328.3853,15 " fill="#E2E2F0" style="stroke:#181818;stroke-width:1.5;"/><path d="M1328.3853,15 C1328.3853,25 1346.3853,25 1346.3853,25 C1346.3853,25 1364.3853,25 1364.3853,15 " fill="none" style="stroke:#181818;stroke-width:1.5;"/><text fill="#000000" font-family="sans-serif" font-size="14" lengthAdjust="spacing" textLength="91.3691" x="1297.7007" y="566.0889">&#1041;&#1072;&#1079;&#1072;&#1044;&#1072;&#1085;&#1085;&#1099;&#1093;</text><path d="M1328.3853,579.3906 C1328.3853,569.3906 1346.3853,569.3906 1346.3853,569.3906 C1346.3853,569.3906 1364.3853,569.3906 1364.3853,579.3906 L1364.3853,605.3906 C1364.3853,615.3906 1346.3853,615.3906 1346.3853,615.3906 C1346.3853,615.3906 1328.3853,615.3906 1328.3853,605.3906 L1328.3853,579.3906 " fill="#E2E2F0" style="stroke:#181818;stroke-width:1.5;"/><path d="M1328.3853,579.3906 C1328.3853,589.3906 1346.3853,589.3906 1346.3853,589.3906 C1346.3853,589.3906 1364.3853,589.3906 1364.3853,579.3906 " fill="none" style="stroke:#181818;stroke-width:1.5;"/><rect fill="#FFFFFF" height="466.7969" style="stroke:#181818;stroke-width:1.0;" width="10" x="64.3521" y="77.2969"/><rect fill="#FFFFFF" height="430.6641" style="stroke:#181818;stroke-width:1.0;" width="10" x="436.1362" y="98.4297"/><rect fill="#FFFFFF" height="416.5313" style="stroke:#181818;stroke-width:1.0;" width="10" x="756.8174" y="127.5625"/><rect fill="#FFFFFF" height="285" style="stroke:#181818;stroke-width:1.0;" width="10" x="1032.8535" y="214.9609"/><rect fill="#FFFFFF" height="29.1328" style="stroke:#181818;stroke-width:1.0;" width="10" x="1341.3853" y="441.6953"/><polygon fill="#181818" points="424.1362,94.4297,434.1362,98.4297,424.1362,102.4297,428.1362,98.4297" style="stroke:#181818;stroke-width:1.0;"/><line style="stroke:#181818;stroke-width:1.0;" x1="74.3521" x2="430.1362" y1="98.4297" y2="98.4297"/><text fill="#000000" font-family="sans-serif" font-size="13" lengthAdjust="spacing" textLength="318.0938" x="81.3521" y="93.3638">&#1047;&#1072;&#1087;&#1088;&#1072;&#1096;&#1080;&#1074;&#1072;&#1077;&#1090; &#1089;&#1086;&#1079;&#1076;&#1072;&#1085;&#1080;&#1077; &#1087;&#1088;&#1080;&#1093;&#1086;&#1076;&#1085;&#1086;&#1081; &#1085;&#1072;&#1082;&#1083;&#1072;&#1076;&#1085;&#1086;&#1081;</text><polygon fill="#181818" points="744.8174,123.5625,754.8174,127.5625,744.8174,131.5625,748.8174,127.5625" style="stroke:#181818;stroke-width:1.0;"/><line style="stroke:#181818;stroke-width:1.0;" x1="446.1362" x2="750.8174" y1="127.5625" y2="127.5625"/><text fill="#000000" font-family="sans-serif" font-size="13" lengthAdjust="spacing" textLength="291.6812" x="453.1362" y="122.4966">&#1054;&#1090;&#1086;&#1073;&#1088;&#1072;&#1078;&#1072;&#1077;&#1090; &#1092;&#1086;&#1088;&#1084;&#1091; &#1087;&#1088;&#1080;&#1093;&#1086;&#1076;&#1085;&#1086;&#1081; &#1085;&#1072;&#1082;&#1083;&#1072;&#1076;&#1085;&#1086;&#1081;</text><polygon fill="#181818" points="744.8174,152.6953,754.8174,156.6953,744.8174,160.6953,748.8174,156.6953" style="stroke:#181818;stroke-width:1.0;"/><line style="stroke:#181818;stroke-width:1.0;" x1="74.3521" x2="750.8174" y1="156.6953" y2="156.6953"/><text fill="#000000" font-family="sans-serif" font-size="13" lengthAdjust="spacing" textLength="382.8398" x="81.3521" y="151.6294">&#1042;&#1074;&#1086;&#1076;&#1080;&#1090; &#1076;&#1072;&#1085;&#1085;&#1099;&#1077; &#1085;&#1072;&#1082;&#1083;&#1072;&#1076;&#1085;&#1086;&#1081; (&#1085;&#1086;&#1084;&#1077;&#1088;, &#1087;&#1086;&#1089;&#1090;&#1072;&#1074;&#1097;&#1080;&#1082;, &#1090;&#1086;&#1074;&#1072;&#1088;&#1099;)</text><polygon fill="#181818" points="85.3521,181.8281,75.3521,185.8281,85.3521,189.8281,81.3521,185.8281" style="stroke:#181818;stroke-width:1.0;"/><line style="stroke:#181818;stroke-width:1.0;" x1="79.3521" x2="755.8174" y1="185.8281" y2="185.8281"/><text fill="#000000" font-family="sans-serif" font-size="13" lengthAdjust="spacing" textLength="194.8794" x="91.3521" y="180.7622">&#1055;&#1086;&#1076;&#1090;&#1074;&#1077;&#1088;&#1078;&#1076;&#1072;&#1077;&#1090; &#1074;&#1074;&#1086;&#1076; &#1076;&#1072;&#1085;&#1085;&#1099;&#1093;</text><polygon fill="#181818" points="1020.8535,210.9609,1030.8535,214.9609,1020.8535,218.9609,1024.8535,214.9609" style="stroke:#181818;stroke-width:1.0;"/><line style="stroke:#181818;stroke-width:1.0;" x1="766.8174" x2="1026.8535" y1="214.9609" y2="214.9609"/><text fill="#000000" font-family="sans-serif" font-size="13" lengthAdjust="spacing" textLength="216.8486" x="773.8174" y="209.895">&#1054;&#1090;&#1087;&#1088;&#1072;&#1074;&#1083;&#1103;&#1077;&#1090; &#1076;&#1072;&#1085;&#1085;&#1099;&#1077; &#1085;&#1072;&#1082;&#1083;&#1072;&#1076;&#1085;&#1086;&#1081;</text><line style="stroke:#181818;stroke-width:1.0;" x1="1042.8535" x2="1084.8535" y1="244.0938" y2="244.0938"/><line style="stroke:#181818;stroke-width:1.0;" x1="1084.8535" x2="1084.8535" y1="244.0938" y2="257.0938"/><line style="stroke:#181818;stroke-width:1.0;" x1="1043.8535" x2="1084.8535" y1="257.0938" y2="257.0938"/><polygon fill="#181818" points="1053.8535,253.0938,1043.8535,257.0938,1053.8535,261.0938,1049.8535,257.0938" style="stroke:#181818;stroke-width:1.0;"/><text fill="#000000" font-family="sans-serif" font-size="13" lengthAdjust="spacing" textLength="138.9438" x="1049.8535" y="239.0278">&#1042;&#1072;&#1083;&#1080;&#1076;&#1080;&#1088;&#1091;&#1077;&#1090; &#1076;&#1072;&#1085;&#1085;&#1099;&#1077;</text><path d="M10,272.0938 L74.4429,272.0938 L74.4429,279.2266 L64.4429,289.2266 L10,289.2266 L10,272.0938 " fill="#EEEEEE" style="stroke:#000000;stroke-width:1.5;"/><rect fill="none" height="265" style="stroke:#000000;stroke-width:1.5;" width="1395.0698" x="10" y="272.0938"/><text fill="#000000" font-family="sans-serif" font-size="13" font-weight="bold" lengthAdjust="spacing" textLength="19.4429" x="25" y="285.1606">alt</text><text fill="#000000" font-family="sans-serif" font-size="11" font-weight="bold" lengthAdjust="spacing" textLength="139.1812" x="89.4429" y="284.3042">[&#1044;&#1072;&#1085;&#1085;&#1099;&#1077; &#1085;&#1077; &#1074;&#1072;&#1083;&#1080;&#1076;&#1085;&#1099;]</text><polygon fill="#181818" points="777.8174,306.3594,767.8174,310.3594,777.8174,314.3594,773.8174,310.3594" style="stroke:#181818;stroke-width:1.0;"/><line style="stroke:#181818;stroke-width:1.0;" x1="771.8174" x2="1031.8535" y1="310.3594" y2="310.3594"/><text fill="#000000" font-family="sans-serif" font-size="13" lengthAdjust="spacing" textLength="242.0361" x="783.8174" y="305.2935">&#1054;&#1090;&#1086;&#1073;&#1088;&#1072;&#1078;&#1072;&#1077;&#1090; &#1089;&#1086;&#1086;&#1073;&#1097;&#1077;&#1085;&#1080;&#1077; &#1086;&#1073; &#1086;&#1096;&#1080;&#1073;&#1082;&#1077;</text><polygon fill="#181818" points="85.3521,335.4922,75.3521,339.4922,85.3521,343.4922,81.3521,339.4922" style="stroke:#181818;stroke-width:1.0;"/><line style="stroke:#181818;stroke-width:1.0;" x1="79.3521" x2="755.8174" y1="339.4922" y2="339.4922"/><text fill="#000000" font-family="sans-serif" font-size="13" lengthAdjust="spacing" textLength="241.9663" x="91.3521" y="334.4263">&#1047;&#1072;&#1087;&#1088;&#1072;&#1096;&#1080;&#1074;&#1072;&#1077;&#1090; &#1080;&#1089;&#1087;&#1088;&#1072;&#1074;&#1083;&#1077;&#1085;&#1080;&#1077; &#1076;&#1072;&#1085;&#1085;&#1099;&#1093;</text><polygon fill="#181818" points="744.8174,364.625,754.8174,368.625,744.8174,372.625,748.8174,368.625" style="stroke:#181818;stroke-width:1.0;"/><line style="stroke:#181818;stroke-width:1.0;" x1="74.3521" x2="750.8174" y1="368.625" y2="368.625"/><text fill="#000000" font-family="sans-serif" font-size="13" lengthAdjust="spacing" textLength="137.2998" x="81.3521" y="363.5591">&#1048;&#1089;&#1087;&#1088;&#1072;&#1074;&#1083;&#1103;&#1077;&#1090; &#1076;&#1072;&#1085;&#1085;&#1099;&#1077;</text><polygon fill="#181818" points="1020.8535,393.7578,1030.8535,397.7578,1020.8535,401.7578,1024.8535,397.7578" style="stroke:#181818;stroke-width:1.0;"/><line style="stroke:#181818;stroke-width:1.0;" x1="766.8174" x2="1026.8535" y1="397.7578" y2="397.7578"/><text fill="#000000" font-family="sans-serif" font-size="13" lengthAdjust="spacing" textLength="216.8486" x="773.8174" y="392.6919">&#1054;&#1090;&#1087;&#1088;&#1072;&#1074;&#1083;&#1103;&#1077;&#1090; &#1076;&#1072;&#1085;&#1085;&#1099;&#1077; &#1085;&#1072;&#1082;&#1083;&#1072;&#1076;&#1085;&#1086;&#1081;</text><line style="stroke:#000000;stroke-width:1.0;stroke-dasharray:2.0,2.0;" x1="10" x2="1405.0698" y1="406.7578" y2="406.7578"/><text fill="#000000" font-family="sans-serif" font-size="11" font-weight="bold" lengthAdjust="spacing" textLength="120.291" x="15" y="416.9683">[&#1044;&#1072;&#1085;&#1085;&#1099;&#1077; &#1074;&#1072;&#1083;&#1080;&#1076;&#1085;&#1099;]</text><polygon fill="#181818" points="1329.3853,437.6953,1339.3853,441.6953,1329.3853,445.6953,1333.3853,441.6953" style="stroke:#181818;stroke-width:1.0;"/><line style="stroke:#181818;stroke-width:1.0;" x1="1042.8535" x2="1335.3853" y1="441.6953" y2="441.6953"/><text fill="#000000" font-family="sans-serif" font-size="13" lengthAdjust="spacing" textLength="279.5317" x="1049.8535" y="436.6294">&#1057;&#1086;&#1093;&#1088;&#1072;&#1085;&#1103;&#1077;&#1090; &#1076;&#1072;&#1085;&#1085;&#1099;&#1077; &#1085;&#1072;&#1082;&#1083;&#1072;&#1076;&#1085;&#1086;&#1081; &#1080; &#1090;&#1086;&#1074;&#1072;&#1088;&#1086;&#1074;</text><polygon fill="#181818" points="1053.8535,466.8281,1043.8535,470.8281,1053.8535,474.8281,1049.8535,470.8281" style="stroke:#181818;stroke-width:1.0;"/><line style="stroke:#181818;stroke-width:1.0;" x1="1047.8535" x2="1345.3853" y1="470.8281" y2="470.8281"/><text fill="#000000" font-family="sans-serif" font-size="13" lengthAdjust="spacing" textLength="187.0273" x="1059.8535" y="465.7622">&#1055;&#1086;&#1076;&#1090;&#1074;&#1077;&#1088;&#1078;&#1076;&#1072;&#1077;&#1090; &#1089;&#1086;&#1093;&#1088;&#1072;&#1085;&#1077;&#1085;&#1080;&#1077;</text><polygon fill="#181818" points="457.1362,495.9609,447.1362,499.9609,457.1362,503.9609,453.1362,499.9609" style="stroke:#181818;stroke-width:1.0;"/><line style="stroke:#181818;stroke-width:1.0;" x1="451.1362" x2="1036.8535" y1="499.9609" y2="499.9609"/><text fill="#000000" font-family="sans-serif" font-size="13" lengthAdjust="spacing" textLength="249.1011" x="463.1362" y="494.895">&#1055;&#1086;&#1076;&#1090;&#1074;&#1077;&#1088;&#1078;&#1076;&#1072;&#1077;&#1090; &#1089;&#1086;&#1079;&#1076;&#1072;&#1085;&#1080;&#1077; &#1085;&#1072;&#1082;&#1083;&#1072;&#1076;&#1085;&#1086;&#1081;</text><polygon fill="#181818" points="85.3521,525.0938,75.3521,529.0938,85.3521,533.0938,81.3521,529.0938" style="stroke:#181818;stroke-width:1.0;"/><line style="stroke:#181818;stroke-width:1.0;" x1="79.3521" x2="440.1362" y1="529.0938" y2="529.0938"/><text fill="#000000" font-family="sans-serif" font-size="13" lengthAdjust="spacing" textLength="337.7842" x="91.3521" y="524.0278">&#1054;&#1090;&#1086;&#1073;&#1088;&#1072;&#1078;&#1072;&#1077;&#1090; &#1087;&#1086;&#1076;&#1090;&#1074;&#1077;&#1088;&#1078;&#1076;&#1077;&#1085;&#1080;&#1077; &#1080; &#1085;&#1086;&#1084;&#1077;&#1088; &#1085;&#1072;&#1082;&#1083;&#1072;&#1076;&#1085;&#1086;&#1081;</text><!--SRC=[hLJDIiD04BxdAGPF2le27doNrUPGAALey5oh1SM3A89IK15yW5gCHclZAyoyaTzisYQRtVu87ffj9ZFpVJFpxNJCOT8yQ7PCEw4D7l2OX_p6EO_aWZF-sY1pHBuvwZXXpvp9YVGuvMyU5Y6EgUR-mhbqrSvFE3Ff8_4RJ_3yv0TOlwPmrbAacuVKKWtWCf4UlkK86dEAVsid3GH73PEOVNCK8_Sr_3_mkyLl0iTBwHTnrtmRHUOWQHwR90vrnpVHpbwj9xl4T_3v0VfGpk4pmbigFP8JX7qWM54pJidwE0KHZbf55JvkwzrNosFUJ71un9USNvK5lyyOd1KESlfdx79E2tfGnRv1pPet0-QqNdHPA_OWQDEUtpgZRR125grfECkzJROEz52wShaLbJWMrUC2z2V5HjJ8YkRT4j3gOR2qAfIaxoVqf3DjfXqeCepbgaYtl317HxuSGyOb16wGU8pwjATTEVK8HAQLK2deWb5ALdj57AmHqKBObT9HyQhn0dgRoXUlU5YDlwBuLFEl7a_uSgYMonQN6DLH4QsXlVjgdi2eGYJ_Q-Hn2_l5dSBQ0y3ksTKhdalVeaxMmqJZAZT4Ju2KqjEDHlPOKkgY2wCpdx6PJGJP6h6NVr5HzSMu3CbTZNvpNU3GdI8AxCIG14C2rzLJupONOKRbabfDpLtJSRiHLR-MYzGjfyRo5m00]--></g></svg>